<?xml version="1.0" encoding="UTF-8" standalone="no"?>
<svg
   xmlns:dc="http://purl.org/dc/elements/1.1/"
   xmlns:cc="http://creativecommons.org/ns#"
   xmlns:rdf="http://www.w3.org/1999/02/22-rdf-syntax-ns#"
   xmlns:svg="http://www.w3.org/2000/svg"
   xmlns="http://www.w3.org/2000/svg"
   xmlns:sodipodi="http://sodipodi.sourceforge.net/DTD/sodipodi-0.dtd"
   xmlns:inkscape="http://www.inkscape.org/namespaces/inkscape"
   height="100%"
   width="100%"
   version="1.1"
   id="svg"
   viewBox="0 0 22 22"
   sodipodi:docname="configure.svgz"
   inkscape:version="0.92.2 5c3e80d, 2017-08-06">
  <sodipodi:namedview
     pagecolor="#ffffff"
     bordercolor="#666666"
     borderopacity="1"
     objecttolerance="10"
     gridtolerance="10"
     guidetolerance="10"
     inkscape:pageopacity="0"
     inkscape:pageshadow="2"
     inkscape:window-width="1280"
     inkscape:window-height="977"
     id="namedview9"
     showgrid="false"
     inkscape:zoom="10.727273"
     inkscape:cx="-5.5932203"
     inkscape:cy="11"
     inkscape:window-x="0"
     inkscape:window-y="0"
     inkscape:window-maximized="1"
     inkscape:current-layer="svg" />
  <defs
     id="defs81">
    <style
       type="text/css"
       id="current-color-scheme">
      .ColorScheme-Text {
        color:#7B7C7E;
      }
      .ColorScheme-Background{
        color:#EFF0F1;
      }
      .ColorScheme-Highlight{
        color:#3DAEE6;
      }
      .ColorScheme-ViewText {
        color:#7B7C7E;
      }
      .ColorScheme-ViewBackground{
        color:#FCFCFC;
      }
      .ColorScheme-ViewHover {
        color:#3DAEE6;
      }
      .ColorScheme-ViewFocus{
        color:#1E92FF;
      }
      .ColorScheme-ButtonText {
        color:#7B7C7E;
      }
      .ColorScheme-ButtonBackground{
        color:#EFF0F1;
      }
      .ColorScheme-ButtonHover {
        color:#3DAEE6;
      }
      .ColorScheme-ButtonFocus{
        color:#1E92FF;
      }
</style>
  </defs>
  <metadata
     id="metadata34">
    <rdf:RDF>
      <cc:Work
         rdf:about="">
        <dc:format>image/svg+xml</dc:format>
        <dc:type
           rdf:resource="http://purl.org/dc/dcmitype/StillImage" />
        <dc:title />
      </cc:Work>
    </rdf:RDF>
  </metadata>
  <g
     style="fill:#31363b"
     id="configure"
     transform="matrix(1.4999999,0,0,1.4999965,-5.4999983,-1551.0396)">
    <rect
       y="1034.0288"
       x="3.6666658"
       height="14.666705"
       width="14.666668"
       id="rect2985"
       style="opacity:0.01000001;fill:#ed1515;fill-opacity:0.00392157;stroke:none" />
    <path
       class="ColorScheme-Text"
       id="rect4139"
       transform="matrix(0.66666671,0,0,0.66666822,2.9999991,1033.3621)"
       d="M 12.5,4 C 11.288125,4 10.294854,4.8587398 10.0625,6 L 4,6 4,7 10.0625,7 c 0.232354,1.1412602 1.225625,2 2.4375,2 1.211875,0 2.205146,-0.8587398 2.4375,-2 L 20,7 20,6 14.9375,6 C 14.705146,4.8587398 13.711875,4 12.5,4 z m -6,11 C 5.1149998,15 4,16.115053 4,17.5 4,18.885097 5.1149998,20 6.5,20 7.7118751,20 8.7051465,19.141315 8.9375,18 L 20,18 20,17 8.9375,17 C 8.7051465,15.858786 7.7118751,15 6.5,15 z m 0,1 C 7.3310001,16 8,16.669002 8,17.5 8,18.330998 7.3310001,19 6.5,19 5.6689999,19 5,18.330998 5,17.5 5,16.669002 5.6689999,16 6.5,16 z"
       style="fill:#1a1a1a;fill-opacity:1;stroke:none" />
  </g>
</svg>
