<?xml version="1.0" encoding="UTF-8" standalone="no"?>
<svg
   xmlns:dc="http://purl.org/dc/elements/1.1/"
   xmlns:cc="http://creativecommons.org/ns#"
   xmlns:rdf="http://www.w3.org/1999/02/22-rdf-syntax-ns#"
   xmlns:svg="http://www.w3.org/2000/svg"
   xmlns="http://www.w3.org/2000/svg"
   xmlns:sodipodi="http://sodipodi.sourceforge.net/DTD/sodipodi-0.dtd"
   xmlns:inkscape="http://www.inkscape.org/namespaces/inkscape"
   height="100%"
   width="100%"
   version="1.1"
   id="svg"
   viewBox="0 0 22 22"
   sodipodi:docname="list.svgz"
   inkscape:version="0.92.2 5c3e80d, 2017-08-06">
  <sodipodi:namedview
     pagecolor="#ffffff"
     bordercolor="#666666"
     borderopacity="1"
     objecttolerance="10"
     gridtolerance="10"
     guidetolerance="10"
     inkscape:pageopacity="0"
     inkscape:pageshadow="2"
     inkscape:window-width="1280"
     inkscape:window-height="977"
     id="namedview14"
     showgrid="false"
     inkscape:zoom="7.5853273"
     inkscape:cx="24.432442"
     inkscape:cy="14.372283"
     inkscape:window-x="0"
     inkscape:window-y="0"
     inkscape:window-maximized="1"
     inkscape:current-layer="svg" />
  <defs
     id="defs81">
    <style
       type="text/css"
       id="current-color-scheme">
      .ColorScheme-Text {
        color:#7B7C7E;
      }
      .ColorScheme-Background{
        color:#EFF0F1;
      }
      .ColorScheme-Highlight{
        color:#3DAEE6;
      }
      .ColorScheme-ViewText {
        color:#7B7C7E;
      }
      .ColorScheme-ViewBackground{
        color:#FCFCFC;
      }
      .ColorScheme-ViewHover {
        color:#3DAEE6;
      }
      .ColorScheme-ViewFocus{
        color:#1E92FF;
      }
      .ColorScheme-ButtonText {
        color:#7B7C7E;
      }
      .ColorScheme-ButtonBackground{
        color:#EFF0F1;
      }
      .ColorScheme-ButtonHover {
        color:#3DAEE6;
      }
      .ColorScheme-ButtonFocus{
        color:#1E92FF;
      }
</style>
    <style
       id="current-color-scheme-5"
       type="text/css">
      .ColorScheme-Text {
        color:#7B7C7E;
      }
      .ColorScheme-Background{
        color:#EFF0F1;
      }
      .ColorScheme-Highlight{
        color:#3DAEE6;
      }
      .ColorScheme-ViewText {
        color:#7B7C7E;
      }
      .ColorScheme-ViewBackground{
        color:#FCFCFC;
      }
      .ColorScheme-ViewHover {
        color:#3DAEE6;
      }
      .ColorScheme-ViewFocus{
        color:#1E92FF;
      }
      .ColorScheme-ButtonText {
        color:#7B7C7E;
      }
      .ColorScheme-ButtonBackground{
        color:#EFF0F1;
      }
      .ColorScheme-ButtonHover {
        color:#3DAEE6;
      }
      .ColorScheme-ButtonFocus{
        color:#1E92FF;
      }
</style>
  </defs>
  <metadata
     id="metadata34">
    <rdf:RDF>
      <cc:Work
         rdf:about="">
        <dc:format>image/svg+xml</dc:format>
        <dc:type
           rdf:resource="http://purl.org/dc/dcmitype/StillImage" />
        <dc:title />
      </cc:Work>
    </rdf:RDF>
  </metadata>
  <g
     transform="translate(-1,1)"
     id="list-add">
    <rect
       y="-1"
       x="1"
       height="22"
       width="22"
       id="rect3061"
       style="fill:#ffffff;fill-opacity:0;stroke:none" />
    <path
       class="ColorScheme-Text"
       id="rect4189"
       transform="translate(1,-1)"
       d="m 10,3 0,7 -7,0 0,1 7,0 0,7 1,0 0,-7 7,0 0,-1 -7,0 0,-7 -1,0 z"
       style="fill:#00ccff;fill-opacity:1;stroke:none" />
  </g>
  <g
     id="list-remove"
     transform="matrix(1.5,0,0,1.5,-803.42856,-917.97185)">
    <rect
       style="opacity:0.01000001;fill:#da4453;fill-opacity:0.00392157;stroke:none"
       id="rect3021"
       width="14.666681"
       height="14.666637"
       x="554.28571"
       y="611.98126" />
    <path
       style="fill:#00ccff;fill-opacity:1;stroke:none"
       d="m 561.61918,613.98116 a 5.3333334,5.3333334 0 0 0 -5.33333,5.33333 5.3333334,5.3333334 0 0 0 5.33333,5.33333 5.3333334,5.3333334 0 0 0 5.33333,-5.33333 5.3333334,5.3333334 0 0 0 -5.33333,-5.33333 z m 0,0.59244 a 4.7407408,4.7407408 0 0 1 4.74089,4.74089 4.7407408,4.7407408 0 0 1 -4.74089,4.74089 4.7407408,4.7407408 0 0 1 -4.74089,-4.74089 4.7407408,4.7407408 0 0 1 4.74089,-4.74089 z"
       id="path4143" />
    <rect
       style="fill:#00ccff;fill-opacity:1;stroke:none"
       id="rect4203"
       width="0.66666669"
       height="10.647333"
       x="-41.130077"
       y="829.72253"
       transform="matrix(0.70710678,-0.70710678,0.70710678,0.70710678,0,0)" />
  </g>
</svg>
