<?xml version="1.0" encoding="UTF-8" standalone="no"?>
<svg
   xmlns:dc="http://purl.org/dc/elements/1.1/"
   xmlns:cc="http://creativecommons.org/ns#"
   xmlns:rdf="http://www.w3.org/1999/02/22-rdf-syntax-ns#"
   xmlns:svg="http://www.w3.org/2000/svg"
   xmlns="http://www.w3.org/2000/svg"
   xmlns:xlink="http://www.w3.org/1999/xlink"
   xmlns:sodipodi="http://sodipodi.sourceforge.net/DTD/sodipodi-0.dtd"
   xmlns:inkscape="http://www.inkscape.org/namespaces/inkscape"
   version="1.0"
   width="64"
   height="64"
   id="svg3642"
   sodipodi:docname="background.svg"
   inkscape:version="0.92.4 (5da689c313, 2019-01-14)">
  <sodipodi:namedview
     pagecolor="#ffffff"
     bordercolor="#666666"
     borderopacity="1"
     objecttolerance="10"
     gridtolerance="10"
     guidetolerance="10"
     inkscape:pageopacity="0"
     inkscape:pageshadow="2"
     inkscape:window-width="1920"
     inkscape:window-height="1033"
     id="namedview149"
     showgrid="false"
     inkscape:zoom="3.6875"
     inkscape:cx="-49.38454"
     inkscape:cy="24.602898"
     inkscape:window-x="0"
     inkscape:window-y="0"
     inkscape:window-maximized="1"
     inkscape:current-layer="svg3642" />
  <defs
     id="defs3644">
    <linearGradient
       id="TopLight">
      <stop
         id="stop3697"
         style="stop-color:#ffffff;stop-opacity:0.78431374"
         offset="0" />
      <stop
         id="stop3699"
         style="stop-color:#ffffff;stop-opacity:0.17647059"
         offset="1" />
    </linearGradient>
    <radialGradient
       cx="39.446178"
       cy="135.6752"
       r="1.0001484"
       fx="39.446178"
       fy="135.6752"
       id="radialGradient6246"
       xlink:href="#TopLight"
       gradientUnits="userSpaceOnUse"
       gradientTransform="matrix(31.010349,0,-6.4183842e-5,-14.997724,-1198.2299,2042.8202)" />
    <radialGradient
       cx="66.25766"
       cy="314.62329"
       r="29"
       fx="66.25766"
       fy="314.62329"
       id="radialGradient6284"
       xlink:href="#TopLight"
       gradientUnits="userSpaceOnUse"
       gradientTransform="matrix(-1.3968588e-6,1.5866159,-1.070118,0,361.71648,-98.125599)" />
    <radialGradient
       cx="39.446178"
       cy="135.6752"
       r="1.0001484"
       fx="39.446178"
       fy="135.6752"
       id="radialGradient4603"
       xlink:href="#TopLight"
       gradientUnits="userSpaceOnUse"
       gradientTransform="matrix(31.010349,0,-6.4183842e-5,-14.997724,-1198.2299,2042.8202)" />
    <radialGradient
       r="29"
       fy="314.62329"
       fx="66.25766"
       cy="314.62329"
       cx="66.25766"
       gradientTransform="matrix(-1.3968588e-6,1.5866159,-1.070118,0,361.71648,-98.125599)"
       gradientUnits="userSpaceOnUse"
       id="radialGradient4361"
       xlink:href="#TopLight" />
    <linearGradient
       xlink:href="#linearGradient24848"
       id="linearGradient26138"
       x1="-8"
       y1="9"
       x2="-11"
       y2="9"
       gradientUnits="userSpaceOnUse"
       gradientTransform="matrix(1,0,0,0.5,17,8.4999999)" />
    <linearGradient
       id="linearGradient24848">
      <stop
         style="stop-color:#000000;stop-opacity:0.361"
         offset="0"
         id="stop24850" />
      <stop
         id="stop24858"
         offset="0.22097377"
         style="stop-color:#000000;stop-opacity:0.257" />
      <stop
         style="stop-color:#000000;stop-opacity:0.155"
         offset="0.44194755"
         id="stop24860" />
      <stop
         id="stop24862"
         offset="0.66292131"
         style="stop-color:#000000;stop-opacity:0.098" />
      <stop
         style="stop-color:#000000;stop-opacity:0.051"
         offset="0.81647938"
         id="stop24864" />
      <stop
         style="stop-color:#000000;stop-opacity:0"
         offset="1"
         id="stop24852" />
    </linearGradient>
    <linearGradient
       xlink:href="#linearGradient24848"
       id="linearGradient26151"
       gradientUnits="userSpaceOnUse"
       gradientTransform="matrix(0,1,-0.5,0,17.5,17)"
       x1="-8"
       y1="9"
       x2="-11"
       y2="9" />
    <radialGradient
       xlink:href="#linearGradient24848"
       id="radialGradient26171"
       cx="8"
       cy="8"
       fx="8"
       fy="8"
       r="3.5"
       gradientUnits="userSpaceOnUse"
       gradientTransform="matrix(0.85714279,0,0,0.85714284,2.1428578,2.1428573)" />
    <linearGradient
       xlink:href="#linearGradient24848"
       id="linearGradient26151-6"
       gradientUnits="userSpaceOnUse"
       gradientTransform="matrix(0,1,-1.8770207,0,41.909351,7.001196)"
       x1="-8"
       y1="9"
       x2="-11"
       y2="9" />
    <linearGradient
       xlink:href="#linearGradient24848"
       id="linearGradient26330"
       gradientUnits="userSpaceOnUse"
       gradientTransform="matrix(1,0,0,0.5,17,8.4999999)"
       x1="-8"
       y1="9"
       x2="-11"
       y2="9" />
    <linearGradient
       xlink:href="#linearGradient24848"
       id="linearGradient26332"
       gradientUnits="userSpaceOnUse"
       gradientTransform="matrix(0,1,-0.5,0,17.5,17)"
       x1="-8"
       y1="9"
       x2="-11"
       y2="9" />
    <radialGradient
       xlink:href="#linearGradient24848"
       id="radialGradient26334"
       gradientUnits="userSpaceOnUse"
       gradientTransform="matrix(0.85714279,0,0,0.85714284,2.1428578,2.1428573)"
       cx="8"
       cy="8"
       fx="8"
       fy="8"
       r="3.5" />
    <linearGradient
       xlink:href="#linearGradient24848"
       id="linearGradient26151-6-1"
       gradientUnits="userSpaceOnUse"
       gradientTransform="matrix(1,0,0,1.8750001,10,6.1260462)"
       x1="-8"
       y1="9"
       x2="-11"
       y2="9" />
    <linearGradient
       xlink:href="#linearGradient24848"
       id="linearGradient26151-6-7"
       gradientUnits="userSpaceOnUse"
       gradientTransform="matrix(1,0,0,-1.8750001,10,39.87605)"
       x1="-8"
       y1="9"
       x2="-11"
       y2="9" />
    <linearGradient
       xlink:href="#linearGradient24848"
       id="linearGradient26849"
       gradientUnits="userSpaceOnUse"
       gradientTransform="matrix(1,0,0,0.5,17,8.4999999)"
       x1="-8"
       y1="9"
       x2="-11"
       y2="9" />
    <linearGradient
       xlink:href="#linearGradient24848"
       id="linearGradient26851"
       gradientUnits="userSpaceOnUse"
       gradientTransform="matrix(0,1,-0.5,0,17.5,17)"
       x1="-8"
       y1="9"
       x2="-11"
       y2="9" />
    <radialGradient
       xlink:href="#linearGradient24848"
       id="radialGradient26853"
       gradientUnits="userSpaceOnUse"
       gradientTransform="matrix(0.85714279,0,0,0.85714284,2.1428578,2.1428573)"
       cx="8"
       cy="8"
       fx="8"
       fy="8"
       r="3.5" />
    <linearGradient
       xlink:href="#linearGradient24848"
       id="linearGradient26879"
       gradientUnits="userSpaceOnUse"
       gradientTransform="matrix(1,0,0,0.5,17,8.4999999)"
       x1="-8"
       y1="9"
       x2="-11"
       y2="9" />
    <linearGradient
       xlink:href="#linearGradient24848"
       id="linearGradient26881"
       gradientUnits="userSpaceOnUse"
       gradientTransform="matrix(0,1,-0.5,0,17.5,17)"
       x1="-8"
       y1="9"
       x2="-11"
       y2="9" />
    <radialGradient
       xlink:href="#linearGradient24848"
       id="radialGradient26883"
       gradientUnits="userSpaceOnUse"
       gradientTransform="matrix(0.85714279,0,0,0.85714284,2.1428578,2.1428573)"
       cx="8"
       cy="8"
       fx="8"
       fy="8"
       r="3.5" />
    <linearGradient
       xlink:href="#linearGradient24848"
       id="linearGradient26151-6-8"
       gradientUnits="userSpaceOnUse"
       gradientTransform="matrix(0,1,-1.8750001,0,41.875001,8.000898)"
       x1="-8"
       y1="9"
       x2="-11"
       y2="9" />
  </defs>
  <metadata
     id="metadata3647">
    <rdf:RDF>
      <cc:Work
         rdf:about="">
        <dc:format>image/svg+xml</dc:format>
        <dc:type
           rdf:resource="http://purl.org/dc/dcmitype/StillImage" />
        <dc:title />
      </cc:Work>
      <cc:Work
         rdf:about="">
        <dc:format>image/svg+xml</dc:format>
        <dc:type
           rdf:resource="http://purl.org/dc/dcmitype/StillImage" />
      </cc:Work>
    </rdf:RDF>
  </metadata>
  <g
     transform="matrix(-1,0,0,1,57,8.9989506)"
     id="right">
    <path
       d="m 2,8.0010494 0,29.9999976 -4,0 c -0.00133,-0.05005 0,-0.09378 0,-0.144231 L -2,8.1452809 c 0,-0.050447 -0.00133,-0.094178 0,-0.1442315 l 4,0 z"
       id="path4585"
       style="opacity:0.03999999;fill:#000000;fill-opacity:0.23529412;fill-rule:nonzero;stroke:none" />
    <path
       d="m 2,8.0010494 0,29.9999976 -3,0 c -10e-4,-0.05005 0,-0.09378 0,-0.144231 L -1,8.1452809 c 0,-0.050447 -10e-4,-0.094178 0,-0.1442315 l 3,0 z"
       id="path4587"
       style="opacity:0.06000001;fill:#000000;fill-opacity:0.31372549;fill-rule:nonzero;stroke:none" />
    <rect
       width="9"
       height="29"
       x="-6"
       y="8.001049"
       id="rect4591"
       style="opacity:0;fill:#000000;fill-opacity:0.21568627;stroke:none" />
    <path
       d="m 4,8 0,29.999998 -1,0 c -3.34e-4,-0.05005 0,-0.09378 0,-0.144231 L 3,8.1442315 C 3,8.0937846 2.999666,8.050054 3,8 l 1,0 z"
       id="path4593"
       style="fill:#ffffff;fill-opacity:1;fill-rule:nonzero;stroke:none" />
    <path
       d="m 10.000891,8 0,29.999998 -6.9999996,0 c -0.00234,-0.05005 0,-0.09378 0,-0.144231 l 0,-29.7115355 c 0,-0.050447 -0.00234,-0.094178 0,-0.1442315 l 6.9999996,0 z"
       id="path4595"
       style="opacity:0;fill:url(#radialGradient4603);fill-opacity:1;fill-rule:nonzero;stroke:none" />
    <path
       d="m 3.0001484,8 0,29.999998 -1,0 c -3.34e-4,-0.05005 0,-0.09378 0,-0.144231 l 0,-29.7115355 c 0,-0.050447 -3.34e-4,-0.094178 0,-0.1442315 l 1,0 z"
       id="path4597"
       style="fill:#cccccc;fill-opacity:1;fill-rule:nonzero;stroke:none" />
    <path
       style="opacity:0.35;fill:url(#linearGradient26151-6-7);fill-opacity:1;fill-rule:evenodd;stroke:none;stroke-width:1px;stroke-linecap:butt;stroke-linejoin:miter;stroke-opacity:1"
       d="m -6,38.001049 0,-29.9999996 8,0 0,15.0000016 0,14.999998 -8,0 z"
       id="path26149-6-8" />
  </g>
  <rect
     width="5"
     height="4.375"
     x="0"
     y="-21.375"
     id="hint-stretch-borders"
     style="opacity:0.875;fill:#1a1a1a;fill-opacity:1;stroke:none" />
  <g
     transform="translate(7,8.9989528)"
     id="top">
    <rect
       width="30"
       height="16"
       x="10"
       y="-7.998951"
       id="rect34778-3"
       style="opacity:0;fill:#000000;fill-opacity:0.21568627;stroke:none" />
    <g
       transform="matrix(0.9989235,0,0,1,0.01076492,0.9998511)"
       id="g4106">
      <path
         d="m 10,-2.9988039 0,1.99985108 30.03233,2.9782e-4 0,-2.0001489 c -0.03233,0 0.01131,0 0,0 -10.010776,2.604e-4 -20.021556,-8.4e-4 -30.03233,0 z"
         id="path4515"
         style="opacity:0.03999999;fill:#000000;fill-opacity:0.23529412;fill-rule:nonzero;stroke:none" />
      <path
         d="m 10,-2.5066159 0,1.50773637 30.03233,2.2453e-4 0,-1.5079609 c -0.03233,0 0.01131,0 0,0 -10.010776,1.963e-4 -20.021556,-6.333e-4 -30.03233,0 z"
         id="path4513"
         style="opacity:0.06000001;fill:#000000;fill-opacity:0.31372549;fill-rule:nonzero;stroke:none" />
      <path
         d="M 10,1.489e-4 10,1 l 30.03233,1.489e-4 0,-1 c -0.03233,0 0.01131,0 0,0 -10.010776,1.3025035e-4 -20.021556,-4.1982315e-4 -30.03233,0 z"
         id="path5949"
         style="fill:#ffffff;fill-opacity:1;fill-rule:nonzero;stroke:none" />
      <path
         d="m 10,1.489e-4 0,7 30.032328,-2.979e-4 0,-6.99894449045 c -0.01122,-0.00234465 -0.02102,0 -0.03233,0 C 30.010819,9.0650311e-4 19.989019,1.489e-4 10,1.489e-4 z"
         id="path3727"
         style="opacity:0;fill:url(#radialGradient6284);fill-opacity:1;fill-rule:nonzero;stroke:none" />
      <path
         d="m 10,-0.9988021 0,0.9998511 30.03233,1.489e-4 0,-1 c -0.03233,0 0.01131,0 0,0 -10.010776,1.3025e-4 -20.021556,-4.1982e-4 -30.03233,0 z"
         id="path3267"
         style="fill:#cccccc;fill-opacity:1;fill-rule:nonzero;stroke:none" />
      <path
         style="opacity:0.35;fill:url(#linearGradient26151-6);fill-opacity:1;fill-rule:evenodd;stroke:none;stroke-width:1px;stroke-linecap:butt;stroke-linejoin:miter;stroke-opacity:1"
         d="m 40.03233,-8.9988039 -30.03233,0 0,8 15.016167,0 15.016163,0 0,-8 z"
         id="path26149-6" />
    </g>
  </g>
  <rect
     width="30"
     height="30"
     x="17"
     y="17.000002"
     id="center"
     style="fill:#f4f6f6;fill-opacity:1;stroke:none;opacity:0.75;" />
  <g
     transform="translate(7,8.9989528)"
     id="left">
    <path
       d="m 2,8.0010494 0,29.9999976 -4,0 c -0.00133,-0.05005 0,-0.09378 0,-0.144231 L -2,8.1452809 c 0,-0.050447 -0.00133,-0.094178 0,-0.1442315 l 4,0 z"
       id="path4397"
       style="opacity:0.03999999;fill:#000000;fill-opacity:0.23529412;fill-rule:nonzero;stroke:none" />
    <path
       d="m 2,8.0010494 0,29.9999976 -3,0 c -10e-4,-0.05005 0,-0.09378 0,-0.144231 L -1,8.1452809 c 0,-0.050447 -10e-4,-0.094178 0,-0.1442315 l 3,0 z"
       id="path4393"
       style="opacity:0.06000001;fill:#000000;fill-opacity:0.31372549;fill-rule:nonzero;stroke:none" />
    <rect
       width="9"
       height="29"
       x="-6"
       y="8.001049"
       id="rect35259"
       style="opacity:0;fill:#000000;fill-opacity:0.21568627;stroke:none" />
    <path
       d="m 4,8 0,29.999998 -1,0 c -3.34e-4,-0.05005 0,-0.09378 0,-0.144231 L 3,8.1442315 C 3,8.0937846 2.999666,8.050054 3,8 l 1,0 z"
       id="path6025"
       style="fill:#ffffff;fill-opacity:1;fill-rule:nonzero;stroke:none" />
    <path
       d="m 10.000891,8 0,29.999998 -6.9999996,0 c -0.00234,-0.05005 0,-0.09378 0,-0.144231 l 0,-29.7115355 c 0,-0.050447 -0.00234,-0.094178 0,-0.1442315 l 6.9999996,0 z"
       id="path3735"
       style="opacity:0;fill:url(#radialGradient6246);fill-opacity:1;fill-rule:nonzero;stroke:none" />
    <path
       d="m 3.0001484,8 0,29.999998 -1,0 c -3.34e-4,-0.05005 0,-0.09378 0,-0.144231 l 0,-29.7115355 c 0,-0.050447 -3.34e-4,-0.094178 0,-0.1442315 l 1,0 z"
       id="path3263"
       style="fill:#cccccc;fill-opacity:1;fill-rule:nonzero;stroke:none" />
    <path
       style="opacity:0.35;fill:url(#linearGradient26151-6-1);fill-opacity:1;fill-rule:evenodd;stroke:none;stroke-width:1px;stroke-linecap:butt;stroke-linejoin:miter;stroke-opacity:1"
       d="m -6,8.0010472 0,29.9999998 8,0 0,-15.000002 0,-14.9999978 -8,0 z"
       id="path26149-6-3" />
  </g>
  <rect
     width="14"
     height="4"
     x="1"
     y="30.000002"
     id="hint-left-margin"
     style="opacity:0.875;fill:#00ccff;fill-opacity:1;stroke:none" />
  <rect
     width="4"
     height="14"
     x="31"
     y="1"
     id="hint-top-margin"
     style="opacity:0.875;fill:#00ccff;fill-opacity:1;stroke:none" />
  <rect
     width="5"
     height="4.375"
     x="15"
     y="-21.375"
     id="hint-compose-over-border"
     style="opacity:0.875;fill:#00ccff;fill-opacity:1;stroke:none" />
  <rect
     width="14"
     height="4"
     x="49"
     y="30.000002"
     id="hint-right-margin"
     style="opacity:0.875;fill:#00ccff;fill-opacity:1;stroke:none" />
  <g
     transform="matrix(0.9687857,0,0,0.96874999,30.043305,-45.06096)"
     id="mask-topleft">
    <path
       d="m -97.001191,61.999999 0,-16 -15.997619,0 c -0.005,0.02669 0,0.05002 0,0.07692 l 0,15.846156 c 0,0.0269 -0.005,0.05023 0,0.07692 l 15.997619,0 z"
       id="path3757"
       style="opacity:0;fill:#000000;fill-opacity:1;fill-rule:nonzero;stroke:none" />
    <path
       d="m -99.281914,54.998668 -3.758726,0 0,6.999737 6.999479,5e-6 -0.0011,-6.999742 z"
       id="path3632"
       style="fill:#000000;fill-opacity:1;fill-rule:nonzero;stroke:none" />
  </g>
  <path
     d="m -62.999998,14.999999 0,30.999995 31.001133,0 0,-30.999995 -31.001133,0 z"
     id="mask-center"
     style="fill:#000000;fill-opacity:1;stroke:none" />
  <g
     transform="matrix(0.86099327,0,0,0.96874999,20.515961,-45.062498)"
     id="mask-left">
    <path
       d="M -96.999554,61.999999 -96.999554,94 -115,94 c -0.006,-0.05339 0,-0.100037 0,-0.153846 l 0,-31.692308 c 0,-0.05381 -0.006,-0.100456 0,-0.153847 l 18.000446,0 z"
       id="path3741"
       style="fill:#000000;fill-opacity:0;fill-rule:nonzero;stroke:none" />
    <path
       d="m -96.999552,61.999999 0,32.000001 -7.875198,0 c -0.003,-0.05339 0,-0.100037 0,-0.153846 l 0,-31.692308 c 0,-0.05381 -0.003,-0.100456 0,-0.153847 l 7.875198,0 z"
       id="path3662"
       style="fill:#000000;fill-opacity:1;fill-rule:nonzero;stroke:none" />
  </g>
  <g
     transform="matrix(-0.86099327,0,0,0.96874999,-115.51596,-45.062498)"
     id="mask-right">
    <path
       d="M -96.999554,61.999999 -96.999554,94 -115,94 c -0.006,-0.05339 0,-0.100037 0,-0.153846 l 0,-31.692308 c 0,-0.05381 -0.006,-0.100456 0,-0.153847 l 18.000446,0 z"
       id="path3487"
       style="fill:#000000;fill-opacity:0;fill-rule:nonzero;stroke:none" />
    <path
       d="m -96.999552,61.999999 0,32.000001 -7.875198,0 c -0.003,-0.05339 0,-0.100037 0,-0.153846 l 0,-31.692308 c 0,-0.05381 -0.003,-0.100456 0,-0.153847 l 7.875198,0 z"
       id="path3489"
       style="fill:#000000;fill-opacity:1;fill-rule:nonzero;stroke:none" />
  </g>
  <g
     transform="matrix(0,0.86096154,0.9687857,0,-123.06471,98.512884)"
     id="mask-top">
    <path
       d="M -96.999554,61.999999 -96.999554,94 -115,94 c -0.006,-0.05339 0,-0.100037 0,-0.153846 l 0,-31.692308 c 0,-0.05381 -0.006,-0.100456 0,-0.153847 l 18.000446,0 z"
       id="path3493"
       style="fill:#000000;fill-opacity:0;fill-rule:nonzero;stroke:none" />
    <path
       d="m -96.999552,61.999999 0,32.000001 -7.875198,0 c -0.003,-0.05339 0,-0.100037 0,-0.153846 l 0,-31.692308 c 0,-0.05381 -0.003,-0.100456 0,-0.153847 l 7.875198,0 z"
       id="path3495"
       style="fill:#000000;fill-opacity:1;fill-rule:nonzero;stroke:none" />
  </g>
  <g
     transform="matrix(0,-0.86096154,0.9687857,0,-123.06586,-37.512885)"
     id="mask-bottom">
    <path
       d="M -96.999554,61.999999 -96.999554,94 -115,94 c -0.006,-0.05339 0,-0.100037 0,-0.153846 l 0,-31.692308 c 0,-0.05381 -0.006,-0.100456 0,-0.153847 l 18.000446,0 z"
       id="path3499"
       style="fill:#000000;fill-opacity:0;fill-rule:nonzero;stroke:none" />
    <path
       d="m -96.999552,61.999999 0,32.000001 -7.875198,0 c -0.003,-0.05339 0,-0.100037 0,-0.153846 l 0,-31.692308 c 0,-0.05381 -0.003,-0.100456 0,-0.153847 l 7.875198,0 z"
       id="path3501"
       style="fill:#000000;fill-opacity:1;fill-rule:nonzero;stroke:none" />
  </g>
  <g
     transform="matrix(1,0,0,-1,13,78.001049)"
     id="topleft">
    <g
       transform="matrix(1.1428571,0,0,1,-15.401587,14.984151)"
       id="g4421"
       style="fill:#a2a2a2;fill-opacity:1;stroke:none">
      <path
         d="m 10.851389,46.016896 0,0 0,0 0,3.999998 c 0.05702,1.99561 1.760314,2.86162 3.611672,2.923079 l 2.513328,0 0,3.076925 -3.5,0 c -3.4999999,0 -7.0000001,0 -7.0000001,0 l 0,-10.000002 z"
         id="path4423"
         style="opacity:0.02999998;fill:#000000;fill-opacity:0.23529412;fill-rule:nonzero;stroke:none" />
      <path
         d="m 10.851389,46.016896 0,4 c 0.05706,1.984273 1.725884,2.861968 3.57858,2.923078 l 2.54642,0 0,2.578816 -3.5,0 c -2.788136,0 -6.1250001,-0.08434 -6.1250001,-0.08434 l 0,-9.417558 z"
         id="path4425"
         style="opacity:0.05;fill:#000000;fill-opacity:0.31372549;fill-rule:nonzero;stroke:none" />
    </g>
    <rect
       width="16"
       height="16"
       x="-12"
       y="61.001049"
       id="rect4431"
       style="opacity:0;fill:#b2b2b2;fill-opacity:1;stroke:none" />
    <g
       id="g4433">
      <path
         d="m 11,48 0,3 c 0,2.5577 0,5 0,5 l 8,0 0,-1 -7,0 c 0,0 0.06722,-1.8173 0,-4 l 0,-3 z"
         transform="translate(-15,13.001049)"
         id="path4435"
         style="fill:#cccccc;fill-opacity:1;fill-rule:nonzero;stroke:none" />
    </g>
    <path
       d="m -3,68.001049 c 0,0 0.067217,-1.8173 0,-4 l 0,-3 1,0 0,3 0,3 6,0 0,1 z"
       id="path4437"
       style="fill:#ffffff;fill-opacity:1;fill-rule:nonzero;stroke:none" />
    <g
       transform="matrix(1,0,0,-1,-13,78.001049)"
       id="g26173">
      <path
         id="path24846"
         d="M 1,9 1,17 9,17 9,13 9,9 1,9 Z"
         style="opacity:0.35;fill:url(#linearGradient26138);fill-opacity:1;fill-rule:evenodd;stroke:none;stroke-width:1px;stroke-linecap:butt;stroke-linejoin:miter;stroke-opacity:1" />
      <path
         style="opacity:0.35;fill:url(#linearGradient26151);fill-opacity:1;fill-rule:evenodd;stroke:none;stroke-width:1px;stroke-linecap:butt;stroke-linejoin:miter;stroke-opacity:1"
         d="m 17,1 -8,0 0,8 4,0 4,0 0,-8 z"
         id="path26149" />
      <rect
         y="1"
         x="1"
         height="8"
         width="8"
         id="rect26167"
         style="opacity:0.359;fill:url(#radialGradient26171);fill-opacity:1;stroke:none;stroke-width:2.5999999;stroke-miterlimit:4;stroke-dasharray:none;stroke-opacity:0.44117647" />
    </g>
  </g>
  <g
     id="bottom"
     transform="matrix(1,0,0,-1,6.9999998,55.000898)">
    <rect
       style="opacity:0;fill:#000000;fill-opacity:0.21568627;stroke:none"
       id="rect4343"
       y="-7.998951"
       x="10"
       height="16"
       width="30" />
    <g
       id="g4345"
       transform="matrix(0.9989235,0,0,1,0.00980414,1.0003864)">
      <path
         style="opacity:0.03999999;fill:#000000;fill-opacity:0.23529412;fill-rule:nonzero;stroke:none"
         id="path4347"
         d="m 10,-2.9988039 0,1.99985108 30.03233,2.9782e-4 0,-2.0001489 c -0.03233,0 0.01131,0 0,0 -10.010776,2.604e-4 -20.021556,-8.4e-4 -30.03233,0 z" />
      <path
         style="opacity:0.06000001;fill:#000000;fill-opacity:0.31372549;fill-rule:nonzero;stroke:none"
         id="path4349"
         d="m 10,-2.5066159 0,1.50773637 30.03233,2.2453e-4 0,-1.5079609 c -0.03233,0 0.01131,0 0,0 -10.010776,1.963e-4 -20.021556,-6.333e-4 -30.03233,0 z" />
      <path
         style="fill:#ffffff;fill-opacity:1;fill-rule:nonzero;stroke:none"
         id="path4353"
         d="M 10,1.489e-4 10,1 l 30.03233,1.489e-4 0,-1 c -0.03233,0 0.01131,0 0,0 -10.010776,1.3025035e-4 -20.021556,-4.1982315e-4 -30.03233,0 z" />
      <path
         style="opacity:0;fill:url(#radialGradient4361);fill-opacity:1;fill-rule:nonzero;stroke:none"
         id="path4355"
         d="m 10,1.489e-4 0,7 30.032328,-2.979e-4 0,-6.99894449045 c -0.01122,-0.00234465 -0.02102,0 -0.03233,0 C 30.010819,9.0650311e-4 19.989019,1.489e-4 10,1.489e-4 Z" />
      <path
         style="fill:#cccccc;fill-opacity:1;fill-rule:nonzero;stroke:none"
         id="path4357"
         d="m 10,-0.9988021 0,0.9998511 30.03233,1.489e-4 0,-1 c -0.03233,0 0.01131,0 0,0 -10.010776,1.3025e-4 -20.021556,-4.1982e-4 -30.03233,0 z" />
    </g>
    <path
       style="opacity:0.35;fill:url(#linearGradient26151-6-8);fill-opacity:1;fill-rule:evenodd;stroke:none;stroke-width:1px;stroke-linecap:butt;stroke-linejoin:miter;stroke-opacity:1"
       d="m 40,-7.999102 -30,0 0,8 15.000002,0 14.999998,0 0,-8 z"
       id="path26149-6-4" />
  </g>
  <rect
     width="3.9956944"
     height="14"
     x="31.017258"
     y="49"
     id="hint-bottom-margin"
     style="opacity:0.875;fill:#00ccff;fill-opacity:1;stroke:none" />
  <g
     id="mask-topright"
     transform="matrix(-0.9687857,0,0,0.96874999,-125.0433,-45.060959)">
    <path
       style="opacity:0;fill:#000000;fill-opacity:1;fill-rule:nonzero;stroke:none"
       id="path4365"
       d="m -97.001191,61.999999 0,-16 -15.997619,0 c -0.005,0.02669 0,0.05002 0,0.07692 l 0,15.846156 c 0,0.0269 -0.005,0.05023 0,0.07692 l 15.997619,0 z" />
    <path
       style="fill:#000000;fill-opacity:1;fill-rule:nonzero;stroke:none"
       id="path4367"
       d="m -99.281914,54.998668 -3.758726,0 0,6.999737 6.999479,5e-6 -0.0011,-6.999742 z" />
  </g>
  <g
     transform="matrix(-0.9687857,0,0,-0.96874999,-125.0433,106.06096)"
     id="mask-bottomright">
    <path
       d="m -97.001191,61.999999 0,-16 -15.997619,0 c -0.005,0.02669 0,0.05002 0,0.07692 l 0,15.846156 c 0,0.0269 -0.005,0.05023 0,0.07692 l 15.997619,0 z"
       id="path4371"
       style="opacity:0;fill:#000000;fill-opacity:1;fill-rule:nonzero;stroke:none" />
    <path
       d="m -99.281914,54.998668 -3.758726,0 0,6.999737 6.999479,5e-6 -0.0011,-6.999742 z"
       id="path4373"
       style="fill:#000000;fill-opacity:1;fill-rule:nonzero;stroke:none" />
  </g>
  <g
     id="mask-bottomleft"
     transform="matrix(0.9687857,0,0,-0.96874999,30.043303,106.06096)">
    <path
       style="opacity:0;fill:#000000;fill-opacity:1;fill-rule:nonzero;stroke:none"
       id="path4377"
       d="m -97.001191,61.999999 0,-16 -15.997619,0 c -0.005,0.02669 0,0.05002 0,0.07692 l 0,15.846156 c 0,0.0269 -0.005,0.05023 0,0.07692 l 15.997619,0 z" />
    <path
       style="fill:#000000;fill-opacity:1;fill-rule:nonzero;stroke:none"
       id="path4380"
       d="m -99.281914,54.998668 -3.758726,0 0,6.999737 6.999479,5e-6 -0.0011,-6.999742 z" />
  </g>
  <g
     id="topright"
     transform="matrix(-1,0,0,-1,51,78.001046)">
    <g
       style="fill:#a2a2a2;fill-opacity:1;stroke:none"
       id="g26308"
       transform="matrix(1.1428571,0,0,1,-15.401587,14.984151)">
      <path
         style="opacity:0.02999998;fill:#000000;fill-opacity:0.23529412;fill-rule:nonzero;stroke:none"
         id="path26310"
         d="m 10.851389,46.016896 0,0 0,0 0,3.999998 c 0.05702,1.99561 1.760314,2.86162 3.611672,2.923079 l 2.513328,0 0,3.076925 -3.5,0 c -3.4999999,0 -7.0000001,0 -7.0000001,0 l 0,-10.000002 z" />
      <path
         style="opacity:0.05;fill:#000000;fill-opacity:0.31372549;fill-rule:nonzero;stroke:none"
         id="path26312"
         d="m 10.851389,46.016896 0,4 c 0.05706,1.984273 1.725884,2.861968 3.57858,2.923078 l 2.54642,0 0,2.578816 -3.5,0 c -2.788136,0 -6.1250001,-0.08434 -6.1250001,-0.08434 l 0,-9.417558 z" />
    </g>
    <rect
       style="opacity:0;fill:#b2b2b2;fill-opacity:1;stroke:none"
       id="rect26314"
       y="61.001049"
       x="-12"
       height="16"
       width="16" />
    <g
       id="g26316">
      <path
         style="fill:#cccccc;fill-opacity:1;fill-rule:nonzero;stroke:none"
         id="path26318"
         transform="translate(-15,13.001049)"
         d="m 11,48 0,3 c 0,2.5577 0,5 0,5 l 8,0 0,-1 -7,0 c 0,0 0.06722,-1.8173 0,-4 l 0,-3 z" />
    </g>
    <path
       style="fill:#ffffff;fill-opacity:1;fill-rule:nonzero;stroke:none"
       id="path26320"
       d="m -3,68.001049 c 0,0 0.067217,-1.8173 0,-4 l 0,-3 1,0 0,3 0,3 6,0 0,1 z" />
    <g
       id="g26322"
       transform="matrix(1,0,0,-1,-13,78.001049)">
      <path
         style="opacity:0.35;fill:url(#linearGradient26330);fill-opacity:1;fill-rule:evenodd;stroke:none;stroke-width:1px;stroke-linecap:butt;stroke-linejoin:miter;stroke-opacity:1"
         d="M 1,9 1,17 9,17 9,13 9,9 1,9 Z"
         id="path26324" />
      <path
         id="path26326"
         d="m 17,1 -8,0 0,8 4,0 4,0 0,-8 z"
         style="opacity:0.35;fill:url(#linearGradient26332);fill-opacity:1;fill-rule:evenodd;stroke:none;stroke-width:1px;stroke-linecap:butt;stroke-linejoin:miter;stroke-opacity:1" />
      <rect
         style="opacity:0.35;fill:url(#radialGradient26334);fill-opacity:1;stroke:none;stroke-width:2.5999999;stroke-miterlimit:4;stroke-dasharray:none;stroke-opacity:0.44117647"
         id="rect26328"
         width="8"
         height="8"
         x="1"
         y="1" />
    </g>
  </g>
  <g
     id="bottomleft"
     transform="translate(13,-14.001043)">
    <g
       style="fill:#a2a2a2;fill-opacity:1;stroke:none"
       id="g26827"
       transform="matrix(1.1428571,0,0,1,-15.401587,14.984151)">
      <path
         style="opacity:0.02999998;fill:#000000;fill-opacity:0.23529412;fill-rule:nonzero;stroke:none"
         id="path26829"
         d="m 10.851389,46.016896 0,0 0,0 0,3.999998 c 0.05702,1.99561 1.760314,2.86162 3.611672,2.923079 l 2.513328,0 0,3.076925 -3.5,0 c -3.4999999,0 -7.0000001,0 -7.0000001,0 l 0,-10.000002 z" />
      <path
         style="opacity:0.05;fill:#000000;fill-opacity:0.31372549;fill-rule:nonzero;stroke:none"
         id="path26831"
         d="m 10.851389,46.016896 0,4 c 0.05706,1.984273 1.725884,2.861968 3.57858,2.923078 l 2.54642,0 0,2.578816 -3.5,0 c -2.788136,0 -6.1250001,-0.08434 -6.1250001,-0.08434 l 0,-9.417558 z" />
    </g>
    <rect
       style="opacity:0;fill:#b2b2b2;fill-opacity:1;stroke:none"
       id="rect26833"
       y="61.001049"
       x="-12"
       height="16"
       width="16" />
    <g
       id="g26835">
      <path
         style="fill:#cccccc;fill-opacity:1;fill-rule:nonzero;stroke:none"
         id="path26837"
         transform="translate(-15,13.001049)"
         d="m 11,48 0,3 c 0,2.5577 0,5 0,5 l 8,0 0,-1 -7,0 c 0,0 0.06722,-1.8173 0,-4 l 0,-3 z" />
    </g>
    <path
       style="fill:#ffffff;fill-opacity:1;fill-rule:nonzero;stroke:none"
       id="path26839"
       d="m -3,68.001049 c 0,0 0.067217,-1.8173 0,-4 l 0,-3 1,0 0,3 0,3 6,0 0,1 z" />
    <g
       id="g26841"
       transform="matrix(1,0,0,-1,-13,78.001049)">
      <path
         style="opacity:0.35;fill:url(#linearGradient26849);fill-opacity:1;fill-rule:evenodd;stroke:none;stroke-width:1px;stroke-linecap:butt;stroke-linejoin:miter;stroke-opacity:1"
         d="M 1,9 1,17 9,17 9,13 9,9 1,9 Z"
         id="path26843" />
      <path
         id="path26845"
         d="m 17,1 -8,0 0,8 4,0 4,0 0,-8 z"
         style="opacity:0.35;fill:url(#linearGradient26851);fill-opacity:1;fill-rule:evenodd;stroke:none;stroke-width:1px;stroke-linecap:butt;stroke-linejoin:miter;stroke-opacity:1" />
      <rect
         style="opacity:0.35;fill:url(#radialGradient26853);fill-opacity:1;stroke:none;stroke-width:2.5999999;stroke-miterlimit:4;stroke-dasharray:none;stroke-opacity:0.44117647"
         id="rect26847"
         width="8"
         height="8"
         x="1"
         y="1" />
    </g>
  </g>
  <g
     transform="matrix(-1,0,0,1,51,-14.001043)"
     id="bottomright">
    <g
       transform="matrix(1.1428571,0,0,1,-15.401587,14.984151)"
       id="g26857"
       style="fill:#a2a2a2;fill-opacity:1;stroke:none">
      <path
         d="m 10.851389,46.016896 0,0 0,0 0,3.999998 c 0.05702,1.99561 1.760314,2.86162 3.611672,2.923079 l 2.513328,0 0,3.076925 -3.5,0 c -3.4999999,0 -7.0000001,0 -7.0000001,0 l 0,-10.000002 z"
         id="path26859"
         style="opacity:0.02999998;fill:#000000;fill-opacity:0.23529412;fill-rule:nonzero;stroke:none" />
      <path
         d="m 10.851389,46.016896 0,4 c 0.05706,1.984273 1.725884,2.861968 3.57858,2.923078 l 2.54642,0 0,2.578816 -3.5,0 c -2.788136,0 -6.1250001,-0.08434 -6.1250001,-0.08434 l 0,-9.417558 z"
         id="path26861"
         style="opacity:0.05;fill:#000000;fill-opacity:0.31372549;fill-rule:nonzero;stroke:none" />
    </g>
    <rect
       width="16"
       height="16"
       x="-12"
       y="61.001049"
       id="rect26863"
       style="opacity:0;fill:#b2b2b2;fill-opacity:1;stroke:none" />
    <g
       id="g26865">
      <path
         d="m 11,48 0,3 c 0,2.5577 0,5 0,5 l 8,0 0,-1 -7,0 c 0,0 0.06722,-1.8173 0,-4 l 0,-3 z"
         transform="translate(-15,13.001049)"
         id="path26867"
         style="fill:#cccccc;fill-opacity:1;fill-rule:nonzero;stroke:none" />
    </g>
    <path
       d="m -3,68.001049 c 0,0 0.067217,-1.8173 0,-4 l 0,-3 1,0 0,3 0,3 6,0 0,1 z"
       id="path26869"
       style="fill:#ffffff;fill-opacity:1;fill-rule:nonzero;stroke:none" />
    <g
       transform="matrix(1,0,0,-1,-13,78.001049)"
       id="g26871">
      <path
         id="path26873"
         d="M 1,9 1,17 9,17 9,13 9,9 1,9 Z"
         style="opacity:0.35;fill:url(#linearGradient26879);fill-opacity:1;fill-rule:evenodd;stroke:none;stroke-width:1px;stroke-linecap:butt;stroke-linejoin:miter;stroke-opacity:1" />
      <path
         style="opacity:0.35;fill:url(#linearGradient26881);fill-opacity:1;fill-rule:evenodd;stroke:none;stroke-width:1px;stroke-linecap:butt;stroke-linejoin:miter;stroke-opacity:1"
         d="m 17,1 -8,0 0,8 4,0 4,0 0,-8 z"
         id="path26875" />
      <rect
         y="1"
         x="1"
         height="8"
         width="8"
         id="rect26877"
         style="opacity:0.35;fill:url(#radialGradient26883);fill-opacity:1;stroke:none;stroke-width:2.5999999;stroke-miterlimit:4;stroke-dasharray:none;stroke-opacity:0.44117647" />
    </g>
  </g>
</svg>
