<?xml version="1.0" encoding="UTF-8" standalone="no"?>
<svg
   xmlns:dc="http://purl.org/dc/elements/1.1/"
   xmlns:cc="http://creativecommons.org/ns#"
   xmlns:rdf="http://www.w3.org/1999/02/22-rdf-syntax-ns#"
   xmlns:svg="http://www.w3.org/2000/svg"
   xmlns="http://www.w3.org/2000/svg"
   xmlns:sodipodi="http://sodipodi.sourceforge.net/DTD/sodipodi-0.dtd"
   xmlns:inkscape="http://www.inkscape.org/namespaces/inkscape"
   id="svg3642"
   width="19.029661"
   height="67.339996"
   version="1"
   sodipodi:docname="scrollbar.svg"
   inkscape:version="0.92.2 5c3e80d, 2017-08-06">
  <metadata
     id="metadata155">
    <rdf:RDF>
      <cc:Work
         rdf:about="">
        <dc:format>image/svg+xml</dc:format>
        <dc:type
           rdf:resource="http://purl.org/dc/dcmitype/StillImage" />
      </cc:Work>
    </rdf:RDF>
  </metadata>
  <sodipodi:namedview
     pagecolor="#ffffff"
     bordercolor="#666666"
     borderopacity="1"
     objecttolerance="10"
     gridtolerance="10"
     guidetolerance="10"
     inkscape:pageopacity="0"
     inkscape:pageshadow="2"
     inkscape:window-width="1280"
     inkscape:window-height="977"
     id="namedview153"
     showgrid="false"
     inkscape:zoom="19.265306"
     inkscape:cx="15.606937"
     inkscape:cy="45.416656"
     inkscape:window-x="0"
     inkscape:window-y="0"
     inkscape:window-maximized="1"
     inkscape:current-layer="svg3642" />
  <defs
     id="defs3644">
    <style
       id="current-color-scheme"
       type="text/css">
   .ColorScheme-Text { color:#d3dae3; stop-color:#d3dae3; } .ColorScheme-Highlight { color:#5294e2; stop-color:#5294e2; }
  </style>
  </defs>
  <g
     id="layer1"
     transform="matrix(0.47574152,0,0,1,-1.9029661,-11.66)">
    <rect
       id="slider-center"
       style="color:#d3dae3;opacity:0.2;fill:#010101;fill-opacity:1;fill-rule:evenodd;stroke:none"
       class="ColorScheme-Text"
       width="1"
       height="10"
       x="24"
       y="20" />
    <g
       id="slider-right"
       transform="matrix(0.75,0,0,1,19.25,13)">
      <path
         id="rect3838"
         style="color:#d3dae3;opacity:0.2;fill:#000000;fill-opacity:1;fill-rule:evenodd;stroke:none"
         class="ColorScheme-Text"
         d="m 9,7 v 10 h 4 V 7 Z"
         inkscape:connector-curvature="0" />
      <rect
         id="rect3856"
         style="opacity:0.01000001;fill:#e4e6e8;fill-opacity:1;stroke:none"
         width="1"
         height="10"
         x="29"
         y="20"
         transform="matrix(1.3333333,0,0,1,-25.666667,-13)" />
    </g>
    <g
       id="slider-topright"
       transform="matrix(0.75,0,0,0.75,19.25,13.75)">
      <rect
         id="rect3852"
         style="opacity:0.01000001;fill:#e4e6e8;fill-opacity:1;stroke:none"
         width="4"
         height="4"
         x="26"
         y="15"
         transform="matrix(1.3333333,0,0,1.3333333,-25.666667,-18.333333)" />
      <path
         id="rect3840"
         style="color:#d3dae3;opacity:0.2;fill:#000000;fill-opacity:1;fill-rule:evenodd;stroke:none"
         class="ColorScheme-Text"
         d="m 9,3 v 4 h 4 C 13,4.784 11.216,3 9,3 Z"
         inkscape:connector-curvature="0" />
    </g>
    <g
       id="slider-bottomright"
       transform="matrix(0.75,0,0,0.75,19.25,18.25)">
      <rect
         id="rect3862"
         style="opacity:0.01000001;fill:#e4e6e8;fill-opacity:1;stroke:none"
         width="4"
         height="4"
         x="26"
         y="31"
         transform="matrix(1.3333333,0,0,1.3333333,-25.666667,-24.333333)" />
      <path
         id="path3871"
         style="color:#d3dae3;opacity:0.2;fill:#0b0b0b;fill-opacity:1;fill-rule:evenodd;stroke:none"
         class="ColorScheme-Text"
         d="m 9,21 v -4 h 4 c 0,2.216 -1.784,4 -4,4 z"
         inkscape:connector-curvature="0" />
    </g>
    <g
       id="slider-left"
       transform="matrix(-0.75,0,0,1,29.75,13)">
      <path
         id="path3891"
         style="color:#d3dae3;opacity:0.2;fill:#000000;fill-opacity:1;fill-rule:evenodd;stroke:none"
         class="ColorScheme-Text"
         d="m 9,7 v 10 h 4 V 7 Z"
         inkscape:connector-curvature="0" />
      <rect
         id="rect3854"
         style="opacity:0.01000001;fill:#e4e6e8;fill-opacity:1;stroke:none"
         width="1"
         height="10"
         x="19"
         y="20"
         transform="matrix(-1.3333333,0,0,1,39.666667,-13)" />
    </g>
    <g
       id="slider-topleft"
       transform="matrix(-0.75,0,0,0.75,29.75,13.75)">
      <rect
         id="rect3848"
         style="opacity:0.01000001;fill:#e4e6e8;fill-opacity:1;stroke:none"
         width="4"
         height="4"
         x="19"
         y="15"
         transform="matrix(-1.3333333,0,0,1.3333333,39.666667,-18.333333)" />
      <path
         id="path3895"
         style="color:#d3dae3;opacity:0.2;fill:#000000;fill-opacity:1;fill-rule:evenodd;stroke:none"
         class="ColorScheme-Text"
         d="m 9,3 v 4 h 4 C 13,4.784 11.216,3 9,3 Z"
         inkscape:connector-curvature="0" />
    </g>
    <g
       id="slider-bottomleft"
       transform="matrix(-0.75,0,0,0.75,29.75,18.25)">
      <rect
         id="rect3858"
         style="opacity:0.01000001;fill:#e4e6e8;fill-opacity:1;stroke:none"
         width="4"
         height="4"
         x="19"
         y="31"
         transform="matrix(-1.3333333,0,0,1.3333333,39.666667,-24.333333)" />
      <path
         id="path3901"
         style="color:#d3dae3;opacity:0.2;fill:#000000;fill-opacity:1;fill-rule:evenodd;stroke:none"
         class="ColorScheme-Text"
         d="m 9,21 v -4 h 4 c 0,2.216 -1.784,4 -4,4 z"
         inkscape:connector-curvature="0" />
    </g>
    <g
       id="slider-top"
       transform="matrix(0,-0.75,-0.1,0,25.7,25.75)">
      <rect
         id="rect3850"
         style="opacity:0.01000001;fill:#e4e6e8;fill-opacity:1;stroke:none"
         width="1"
         height="4"
         x="24"
         y="15"
         transform="matrix(0,-10,-1.3333333,0,34.333333,257)" />
      <path
         id="path3909"
         style="color:#d3dae3;opacity:0.2;fill:#000000;fill-opacity:1;fill-rule:evenodd;stroke:none"
         class="ColorScheme-Text"
         d="m 9,7 v 10 h 4 V 7 Z"
         inkscape:connector-curvature="0" />
    </g>
    <g
       id="slider-bottom"
       transform="matrix(0,0.75,-0.1,0,25.7,24.25)">
      <rect
         id="rect3860"
         style="opacity:0.01000001;fill:#e4e6e8;fill-opacity:1;stroke:none"
         width="1"
         height="4"
         x="24"
         y="31"
         transform="matrix(0,-10,1.3333333,0,-32.333333,257)" />
      <path
         id="path3915"
         style="color:#d3dae3;opacity:0.2;fill:#2c2c2d;fill-opacity:1;fill-rule:evenodd;stroke:none"
         class="ColorScheme-Text"
         d="m 9,7 v 10 h 4 V 7 Z"
         inkscape:connector-curvature="0" />
    </g>
    <rect
       id="hint-scrollbar-size"
       style="fill:#00ccff;fill-opacity:1;fill-rule:nonzero;stroke:none;stroke-width:0.65500033"
       width="8"
       height="3.4322035"
       x="4"
       y="29.567797"
       rx="0"
       ry="3.4322035" />
    <rect
       id="hint-tile-center"
       style="fill:#1a1a1a;fill-opacity:1;fill-rule:nonzero;stroke:none;stroke-width:0.67096418"
       width="2.033"
       height="0.93505073"
       x="7.2600002"
       y="12.801949"
       rx="0"
       ry="0.93505073" />
    <g
       id="background-vertical-right"
       transform="matrix(0.75,0,0,1,33.25,13)">
      <path
         id="rect3838-1"
         style="color:#d3dae3;opacity:0;fill:currentColor;fill-opacity:1;fill-rule:evenodd;stroke:none"
         class="ColorScheme-Text"
         d="m 9,7 v 10 h 4 V 7 Z"
         inkscape:connector-curvature="0" />
      <rect
         id="rect3872"
         style="opacity:0.01000001;fill:#e4e6e8;fill-opacity:1;stroke:none"
         width="1"
         height="10"
         x="43"
         y="20"
         transform="matrix(1.3333333,0,0,1,-44.333333,-13)" />
      <path
         id="path4264"
         style="color:#d3dae3;opacity:0.1;fill:currentColor;fill-opacity:1;fill-rule:evenodd;stroke:none"
         class="ColorScheme-Text"
         d="m 9,7 v 10 h 4 V 7 Z"
         inkscape:connector-curvature="0" />
    </g>
    <g
       id="background-vertical-topright"
       transform="matrix(0.75,0,0,0.75,33.25,13.75)">
      <rect
         id="rect3868"
         style="opacity:0.01000001;fill:#e4e6e8;fill-opacity:1;stroke:none"
         width="4"
         height="4"
         x="40"
         y="15"
         transform="matrix(1.3333333,0,0,1.3333333,-44.333333,-18.333333)" />
      <path
         id="rect3840-1"
         style="color:#d3dae3;opacity:0;fill:currentColor;fill-opacity:1;fill-rule:evenodd;stroke:none"
         class="ColorScheme-Text"
         d="m 9,3 v 4 h 4 C 13,4.784 11.216,3 9,3 Z"
         inkscape:connector-curvature="0" />
      <path
         id="path4278"
         style="color:#d3dae3;opacity:0.1;fill:currentColor;fill-opacity:1;fill-rule:evenodd;stroke:none"
         class="ColorScheme-Text"
         d="m 9,3 v 4 h 4 C 13,4.784 11.216,3 9,3 Z"
         inkscape:connector-curvature="0" />
    </g>
    <g
       id="background-vertical-bottomright"
       transform="matrix(0.75,0,0,0.75,33.25,18.25)">
      <rect
         id="rect3878"
         style="opacity:0.01000001;fill:#e4e6e8;fill-opacity:1;stroke:none"
         width="4"
         height="4"
         x="40"
         y="31"
         transform="matrix(1.3333333,0,0,1.3333333,-44.333333,-24.333333)" />
      <path
         id="path3871-2"
         style="color:#d3dae3;opacity:0;fill:currentColor;fill-opacity:1;fill-rule:evenodd;stroke:none"
         class="ColorScheme-Text"
         d="m 9,21 v -4 h 4 c 0,2.216 -1.784,4 -4,4 z"
         inkscape:connector-curvature="0" />
      <path
         id="path4284"
         style="color:#d3dae3;opacity:0.1;fill:currentColor;fill-opacity:1;fill-rule:evenodd;stroke:none"
         class="ColorScheme-Text"
         d="m 9,21 v -4 h 4 c 0,2.216 -1.784,4 -4,4 z"
         inkscape:connector-curvature="0" />
    </g>
    <g
       id="background-vertical-left"
       transform="matrix(-0.75,0,0,1,43.75,13)">
      <path
         id="path3891-2"
         style="color:#d3dae3;opacity:0;fill:currentColor;fill-opacity:1;fill-rule:evenodd;stroke:none"
         class="ColorScheme-Text"
         d="m 9,7 v 10 h 4 V 7 Z"
         inkscape:connector-curvature="0" />
      <rect
         id="rect3870"
         style="opacity:0.01000001;fill:#e4e6e8;fill-opacity:1;stroke:none"
         width="1"
         height="10"
         x="33"
         y="20"
         transform="matrix(-1.3333333,0,0,1,58.333333,-13)" />
      <path
         id="path4262"
         style="color:#d3dae3;opacity:0.1;fill:currentColor;fill-opacity:1;fill-rule:evenodd;stroke:none"
         class="ColorScheme-Text"
         d="m 9,7 v 10 h 4 V 7 Z"
         inkscape:connector-curvature="0" />
    </g>
    <g
       id="background-vertical-topleft"
       transform="matrix(-0.75,0,0,0.75,43.75,13.75)">
      <rect
         id="rect3864"
         style="opacity:0.01000001;fill:#e4e6e8;fill-opacity:1;stroke:none"
         width="4"
         height="4"
         x="33"
         y="15"
         transform="matrix(-1.3333333,0,0,1.3333333,58.333333,-18.333333)" />
      <path
         id="path3895-9"
         style="color:#d3dae3;opacity:0;fill:currentColor;fill-opacity:1;fill-rule:evenodd;stroke:none"
         class="ColorScheme-Text"
         d="m 9,3 v 4 h 4 C 13,4.784 11.216,3 9,3 Z"
         inkscape:connector-curvature="0" />
      <path
         id="path4274"
         style="color:#d3dae3;opacity:0.1;fill:currentColor;fill-opacity:1;fill-rule:evenodd;stroke:none"
         class="ColorScheme-Text"
         d="m 9,3 v 4 h 4 C 13,4.784 11.216,3 9,3 Z"
         inkscape:connector-curvature="0" />
    </g>
    <g
       id="background-vertical-bottomleft"
       transform="matrix(-0.75,0,0,0.75,43.75,18.25)">
      <rect
         id="rect3874"
         style="opacity:0.01000001;fill:#e4e6e8;fill-opacity:1;stroke:none"
         width="4"
         height="4"
         x="33"
         y="31"
         transform="matrix(-1.3333333,0,0,1.3333333,58.333333,-24.333333)" />
      <path
         id="path3901-7"
         style="color:#d3dae3;opacity:0;fill:currentColor;fill-opacity:1;fill-rule:evenodd;stroke:none"
         class="ColorScheme-Text"
         d="m 9,21 v -4 h 4 c 0,2.216 -1.784,4 -4,4 z"
         inkscape:connector-curvature="0" />
      <path
         id="path4280"
         style="color:#d3dae3;opacity:0.1;fill:currentColor;fill-opacity:1;fill-rule:evenodd;stroke:none"
         class="ColorScheme-Text"
         d="m 9,21 v -4 h 4 c 0,2.216 -1.784,4 -4,4 z"
         inkscape:connector-curvature="0" />
    </g>
    <g
       id="background-vertical-top"
       transform="matrix(0,-0.75,-0.1,0,39.7,25.75)">
      <rect
         id="rect3866"
         style="opacity:0.01000001;fill:#e4e6e8;fill-opacity:1;stroke:none"
         width="1"
         height="4"
         x="38"
         y="15"
         transform="matrix(0,-10,-1.3333333,0,34.333333,397)" />
      <path
         id="path3909-8"
         style="color:#d3dae3;opacity:0;fill:currentColor;fill-opacity:1;fill-rule:evenodd;stroke:none"
         class="ColorScheme-Text"
         d="m 9,7 v 10 h 4 V 7 Z"
         inkscape:connector-curvature="0" />
      <path
         id="path4276"
         style="color:#d3dae3;opacity:0.1;fill:currentColor;fill-opacity:1;fill-rule:evenodd;stroke:none"
         class="ColorScheme-Text"
         d="m 9,7 v 10 h 4 V 7 Z"
         inkscape:connector-curvature="0" />
    </g>
    <g
       id="background-vertical-bottom"
       transform="matrix(0,0.75,-0.1,0,39.7,24.25)">
      <rect
         id="rect3876"
         style="opacity:0.01000001;fill:#e4e6e8;fill-opacity:1;stroke:none"
         width="1"
         height="4"
         x="38"
         y="31"
         transform="matrix(0,-10,1.3333333,0,-32.333333,397)" />
      <path
         id="path3915-5"
         style="color:#d3dae3;opacity:0;fill:currentColor;fill-opacity:1;fill-rule:evenodd;stroke:none"
         class="ColorScheme-Text"
         d="m 9,7 v 10 h 4 V 7 Z"
         inkscape:connector-curvature="0" />
      <path
         id="path4282"
         style="color:#d3dae3;opacity:0.1;fill:currentColor;fill-opacity:1;fill-rule:evenodd;stroke:none"
         class="ColorScheme-Text"
         d="m 9,7 v 10 h 4 V 7 Z"
         inkscape:connector-curvature="0" />
    </g>
    <rect
       id="sunken-slider-center"
       style="color:#5294e2;fill:#00ccff;fill-opacity:1;fill-rule:evenodd;stroke:none"
       class="ColorScheme-Highlight"
       width="1"
       height="10"
       x="24"
       y="64" />
    <g
       id="sunken-slider-right"
       transform="matrix(0.75,0,0,1,19.25,57)">
      <path
         id="rect3838-4-8"
         style="color:#5294e2;fill:#00ccff;fill-opacity:1;fill-rule:evenodd;stroke:none"
         class="ColorScheme-Highlight"
         d="m 9,7 v 10 h 4 V 7 Z"
         inkscape:connector-curvature="0" />
      <rect
         id="rect3924"
         style="opacity:0.01000001;fill:#e4e6e8;fill-opacity:1;stroke:none"
         width="1"
         height="10"
         x="29"
         y="64"
         transform="matrix(1.3333333,0,0,1,-25.666667,-57)" />
    </g>
    <g
       id="sunken-slider-topright"
       transform="matrix(0.75,0,0,0.75,19.25,57.75)">
      <rect
         id="rect3920"
         style="opacity:0.01000001;fill:#e4e6e8;fill-opacity:1;stroke:none"
         width="4"
         height="4"
         x="26"
         y="59"
         transform="matrix(1.3333333,0,0,1.3333333,-25.666667,-77)" />
      <path
         id="rect3840-2-9"
         style="color:#5294e2;fill:#00ccff;fill-opacity:1;fill-rule:evenodd;stroke:none"
         class="ColorScheme-Highlight"
         d="m 9,3 v 4 h 4 C 13,4.784 11.216,3 9,3 Z"
         inkscape:connector-curvature="0" />
    </g>
    <g
       id="sunken-slider-bottomright"
       transform="matrix(0.75,0,0,0.75,19.25,62.25)">
      <rect
         id="rect3930"
         style="opacity:0.01000001;fill:#e4e6e8;fill-opacity:1;stroke:none"
         width="4"
         height="4"
         x="26"
         y="75"
         transform="matrix(1.3333333,0,0,1.3333333,-25.666667,-83)" />
      <path
         id="path3871-1-7"
         style="color:#5294e2;fill:#00ccff;fill-opacity:1;fill-rule:evenodd;stroke:none"
         class="ColorScheme-Highlight"
         d="m 9,21 v -4 h 4 c 0,2.216 -1.784,4 -4,4 z"
         inkscape:connector-curvature="0" />
    </g>
    <g
       id="sunken-slider-left"
       transform="matrix(-0.75,0,0,1,29.75,57)">
      <path
         id="path3891-9-4"
         style="color:#5294e2;fill:#00ccff;fill-opacity:1;fill-rule:evenodd;stroke:none"
         class="ColorScheme-Highlight"
         d="m 9,7 v 10 h 4 V 7 Z"
         inkscape:connector-curvature="0" />
      <rect
         id="rect3922"
         style="opacity:0.01000001;fill:#e4e6e8;fill-opacity:1;stroke:none"
         width="1"
         height="10"
         x="19"
         y="64"
         transform="matrix(-1.3333333,0,0,1,39.666667,-57)" />
    </g>
    <g
       id="sunken-slider-topleft"
       transform="matrix(-0.75,0,0,0.75,29.75,57.75)">
      <rect
         id="rect3916"
         style="opacity:0.01000001;fill:#e4e6e8;fill-opacity:1;stroke:none"
         width="4"
         height="4"
         x="19"
         y="59"
         transform="matrix(-1.3333333,0,0,1.3333333,39.666667,-77)" />
      <path
         id="path3895-2-1"
         style="color:#5294e2;fill:#00ccff;fill-opacity:1;fill-rule:evenodd;stroke:none"
         class="ColorScheme-Highlight"
         d="m 9,3 v 4 h 4 C 13,4.784 11.216,3 9,3 Z"
         inkscape:connector-curvature="0" />
    </g>
    <g
       id="sunken-slider-bottomleft"
       transform="matrix(-0.75,0,0,0.75,29.75,62.25)">
      <rect
         id="rect3926"
         style="opacity:0.01000001;fill:#e4e6e8;fill-opacity:1;stroke:none"
         width="4"
         height="4"
         x="19"
         y="75"
         transform="matrix(-1.3333333,0,0,1.3333333,39.666667,-83)" />
      <path
         id="path3901-9-9"
         style="color:#5294e2;fill:#00ccff;fill-opacity:1;fill-rule:evenodd;stroke:none"
         class="ColorScheme-Highlight"
         d="m 9,21 v -4 h 4 c 0,2.216 -1.784,4 -4,4 z"
         inkscape:connector-curvature="0" />
    </g>
    <g
       id="sunken-slider-top"
       transform="matrix(0,-0.75,-0.1,0,25.7,69.75)">
      <rect
         id="rect3918"
         style="opacity:0.01000001;fill:#e4e6e8;fill-opacity:1;stroke:none"
         width="1"
         height="4"
         x="24"
         y="59"
         transform="matrix(0,-10,-1.3333333,0,93,257)" />
      <path
         id="path3909-6-1"
         style="color:#5294e2;fill:#00ccff;fill-opacity:1;fill-rule:evenodd;stroke:none"
         class="ColorScheme-Highlight"
         d="m 9,7 v 10 h 4 V 7 Z"
         inkscape:connector-curvature="0" />
    </g>
    <g
       id="sunken-slider-bottom"
       transform="matrix(0,0.75,-0.1,0,25.7,68.25)">
      <rect
         id="rect3928"
         style="opacity:0.01000001;fill:#e4e6e8;fill-opacity:1;stroke:none"
         width="1"
         height="4"
         x="24"
         y="75"
         transform="matrix(0,-10,1.3333333,0,-91,257)" />
      <path
         id="path3915-6-3"
         style="color:#5294e2;fill:#00ccff;fill-opacity:1;fill-rule:evenodd;stroke:none"
         class="ColorScheme-Highlight"
         d="m 9,7 v 10 h 4 V 7 Z"
         inkscape:connector-curvature="0" />
    </g>
    <rect
       id="mouseover-slider-center"
       style="color:#5294e2;opacity:1;fill:#00ccff;fill-opacity:1;fill-rule:evenodd;stroke:none"
       class="ColorScheme-Highlight"
       width="1"
       height="10"
       x="24"
       y="42" />
    <g
       id="mouseover-slider-right"
       transform="matrix(0.75,0,0,1,19.250001,35)">
      <path
         id="path3963"
         style="color:#5294e2;opacity:1;fill:#00ccff;fill-opacity:1;fill-rule:evenodd;stroke:none"
         class="ColorScheme-Highlight"
         d="m 9,7 v 10 h 4 V 7 Z"
         inkscape:connector-curvature="0" />
      <rect
         id="rect3965"
         style="opacity:0.01000001;fill:#e4e6e8;fill-opacity:1;stroke:none"
         width="1"
         height="10"
         x="29"
         y="64"
         transform="matrix(1.3333333,0,0,1,-25.666667,-57)" />
    </g>
    <g
       id="mouseover-slider-topright"
       transform="matrix(0.75,0,0,0.75,19.250001,35.75)">
      <rect
         id="rect3969"
         style="opacity:0.01000001;fill:#e4e6e8;fill-opacity:1;stroke:none"
         width="4"
         height="4"
         x="26"
         y="59"
         transform="matrix(1.3333333,0,0,1.3333333,-25.666667,-77)" />
      <path
         id="path3971"
         style="color:#5294e2;opacity:1;fill:#00ccff;fill-opacity:1;fill-rule:evenodd;stroke:none"
         class="ColorScheme-Highlight"
         d="m 9,3 v 4 h 4 C 13,4.784 11.216,3 9,3 Z"
         inkscape:connector-curvature="0" />
    </g>
    <g
       id="mouseover-slider-bottomright"
       transform="matrix(0.75,0,0,0.75,19.250001,40.25)">
      <rect
         id="rect3975"
         style="opacity:0.01000001;fill:#e4e6e8;fill-opacity:1;stroke:none"
         width="4"
         height="4"
         x="26"
         y="75"
         transform="matrix(1.3333333,0,0,1.3333333,-25.666667,-83)" />
      <path
         id="path3977"
         style="color:#5294e2;opacity:1;fill:#00ccff;fill-opacity:1;fill-rule:evenodd;stroke:none"
         class="ColorScheme-Highlight"
         d="m 9,21 v -4 h 4 c 0,2.216 -1.784,4 -4,4 z"
         inkscape:connector-curvature="0" />
    </g>
    <g
       id="mouseover-slider-left"
       transform="matrix(-0.75,0,0,1,29.750001,35)">
      <path
         id="path3981"
         style="color:#5294e2;opacity:1;fill:#00ccff;fill-opacity:1;fill-rule:evenodd;stroke:none"
         class="ColorScheme-Highlight"
         d="m 9,7 v 10 h 4 V 7 Z"
         inkscape:connector-curvature="0" />
      <rect
         id="rect3983"
         style="opacity:0.01000001;fill:#e4e6e8;fill-opacity:1;stroke:none"
         width="1"
         height="10"
         x="19"
         y="64"
         transform="matrix(-1.3333333,0,0,1,39.666667,-57)" />
    </g>
    <g
       id="mouseover-slider-topleft"
       transform="matrix(-0.75,0,0,0.75,29.750001,35.75)">
      <rect
         id="rect3987"
         style="opacity:0.01000001;fill:#e4e6e8;fill-opacity:1;stroke:none"
         width="4"
         height="4"
         x="19"
         y="59"
         transform="matrix(-1.3333333,0,0,1.3333333,39.666667,-77)" />
      <path
         id="path3989"
         style="color:#5294e2;opacity:1;fill:#00ccff;fill-opacity:1;fill-rule:evenodd;stroke:none"
         class="ColorScheme-Highlight"
         d="m 9,3 v 4 h 4 C 13,4.784 11.216,3 9,3 Z"
         inkscape:connector-curvature="0" />
    </g>
    <g
       id="mouseover-slider-bottomleft"
       transform="matrix(-0.75,0,0,0.75,29.750001,40.25)">
      <rect
         id="rect3993"
         style="opacity:0.01000001;fill:#e4e6e8;fill-opacity:1;stroke:none"
         width="4"
         height="4"
         x="19"
         y="75"
         transform="matrix(-1.3333333,0,0,1.3333333,39.666667,-83)" />
      <path
         id="path3995"
         style="color:#5294e2;opacity:1;fill:#00ccff;fill-opacity:1;fill-rule:evenodd;stroke:none"
         class="ColorScheme-Highlight"
         d="m 9,21 v -4 h 4 c 0,2.216 -1.784,4 -4,4 z"
         inkscape:connector-curvature="0" />
    </g>
    <g
       id="mouseover-slider-top"
       transform="matrix(0,-0.75,-0.1,0,25.700001,47.75)">
      <rect
         id="rect3999"
         style="opacity:0.01000001;fill:#e4e6e8;fill-opacity:1;stroke:none"
         width="1"
         height="4"
         x="24"
         y="59"
         transform="matrix(0,-10,-1.3333333,0,93,257)" />
      <path
         id="path4001"
         style="color:#5294e2;opacity:1;fill:#00ccff;fill-opacity:1;fill-rule:evenodd;stroke:none"
         class="ColorScheme-Highlight"
         d="m 9,7 v 10 h 4 V 7 Z"
         inkscape:connector-curvature="0" />
    </g>
    <g
       id="mouseover-slider-bottom"
       transform="matrix(0,0.75,-0.1,0,25.700001,46.25)">
      <rect
         id="rect4005"
         style="opacity:0.01000001;fill:#e4e6e8;fill-opacity:1;stroke:none"
         width="1"
         height="4"
         x="24"
         y="75"
         transform="matrix(0,-10,1.3333333,0,-91,257)" />
      <path
         id="path4007"
         style="color:#5294e2;opacity:1;fill:#00ccff;fill-opacity:1;fill-rule:evenodd;stroke:none"
         class="ColorScheme-Highlight"
         d="m 9,7 v 10 h 4 V 7 Z"
         inkscape:connector-curvature="0" />
    </g>
    <g
       id="background-vertical-center">
      <rect
         id="rect4272"
         style="color:#d3dae3;opacity:0;fill:currentColor;fill-opacity:1;fill-rule:evenodd;stroke:none"
         class="ColorScheme-Text"
         width="1"
         height="10"
         x="38"
         y="20" />
      <rect
         id="rect4266"
         style="color:#d3dae3;opacity:0.1;fill:currentColor;fill-opacity:1;fill-rule:evenodd;stroke:none"
         class="ColorScheme-Text"
         width="1"
         height="10"
         x="38"
         y="20" />
    </g>
    <g
       id="background-horizontal-right"
       transform="matrix(0.75,0,0,1,33.250001,35.000001)">
      <path
         id="path4288"
         style="color:#d3dae3;opacity:0;fill:currentColor;fill-opacity:1;fill-rule:evenodd;stroke:none"
         class="ColorScheme-Text"
         d="m 9,7 v 10 h 4 V 7 Z"
         inkscape:connector-curvature="0" />
      <rect
         id="rect4290"
         style="opacity:0.01000001;fill:#e4e6e8;fill-opacity:1;stroke:none"
         width="1"
         height="10"
         x="43"
         y="20"
         transform="matrix(1.3333333,0,0,1,-44.333333,-13)" />
      <path
         id="path4292"
         style="color:#d3dae3;opacity:0.1;fill:currentColor;fill-opacity:1;fill-rule:evenodd;stroke:none"
         class="ColorScheme-Text"
         d="m 9,7 v 10 h 4 V 7 Z"
         inkscape:connector-curvature="0" />
    </g>
    <g
       id="background-horizontal-topright"
       transform="matrix(0.75,0,0,0.75,33.250001,35.750001)">
      <rect
         id="rect4296"
         style="opacity:0.01000001;fill:#e4e6e8;fill-opacity:1;stroke:none"
         width="4"
         height="4"
         x="40"
         y="15"
         transform="matrix(1.3333333,0,0,1.3333333,-44.333333,-18.333333)" />
      <path
         id="path4298"
         style="color:#d3dae3;opacity:0;fill:currentColor;fill-opacity:1;fill-rule:evenodd;stroke:none"
         class="ColorScheme-Text"
         d="m 9,3 v 4 h 4 C 13,4.784 11.216,3 9,3 Z"
         inkscape:connector-curvature="0" />
      <path
         id="path4300"
         style="color:#d3dae3;opacity:0.1;fill:currentColor;fill-opacity:1;fill-rule:evenodd;stroke:none"
         class="ColorScheme-Text"
         d="m 9,3 v 4 h 4 C 13,4.784 11.216,3 9,3 Z"
         inkscape:connector-curvature="0" />
    </g>
    <g
       id="background-horizontal-bottomright"
       transform="matrix(0.75,0,0,0.75,33.250001,40.250001)">
      <rect
         id="rect4304"
         style="opacity:0.01000001;fill:#e4e6e8;fill-opacity:1;stroke:none"
         width="4"
         height="4"
         x="40"
         y="31"
         transform="matrix(1.3333333,0,0,1.3333333,-44.333333,-24.333333)" />
      <path
         id="path4306"
         style="color:#d3dae3;opacity:0;fill:currentColor;fill-opacity:1;fill-rule:evenodd;stroke:none"
         class="ColorScheme-Text"
         d="m 9,21 v -4 h 4 c 0,2.216 -1.784,4 -4,4 z"
         inkscape:connector-curvature="0" />
      <path
         id="path4308"
         style="color:#d3dae3;opacity:0.1;fill:currentColor;fill-opacity:1;fill-rule:evenodd;stroke:none"
         class="ColorScheme-Text"
         d="m 9,21 v -4 h 4 c 0,2.216 -1.784,4 -4,4 z"
         inkscape:connector-curvature="0" />
    </g>
    <g
       id="background-horizontal-left"
       transform="matrix(-0.75,0,0,1,43.750001,35.000001)">
      <path
         id="path4312"
         style="color:#d3dae3;opacity:0;fill:currentColor;fill-opacity:1;fill-rule:evenodd;stroke:none"
         class="ColorScheme-Text"
         d="m 9,7 v 10 h 4 V 7 Z"
         inkscape:connector-curvature="0" />
      <rect
         id="rect4314"
         style="opacity:0.01000001;fill:#e4e6e8;fill-opacity:1;stroke:none"
         width="1"
         height="10"
         x="33"
         y="20"
         transform="matrix(-1.3333333,0,0,1,58.333333,-13)" />
      <path
         id="path4316"
         style="color:#d3dae3;opacity:0.1;fill:currentColor;fill-opacity:1;fill-rule:evenodd;stroke:none"
         class="ColorScheme-Text"
         d="m 9,7 v 10 h 4 V 7 Z"
         inkscape:connector-curvature="0" />
    </g>
    <g
       id="background-horizontal-topleft"
       transform="matrix(-0.75,0,0,0.75,43.750001,35.750001)">
      <rect
         id="rect4320"
         style="opacity:0.01000001;fill:#e4e6e8;fill-opacity:1;stroke:none"
         width="4"
         height="4"
         x="33"
         y="15"
         transform="matrix(-1.3333333,0,0,1.3333333,58.333333,-18.333333)" />
      <path
         id="path4322"
         style="color:#d3dae3;opacity:0;fill:currentColor;fill-opacity:1;fill-rule:evenodd;stroke:none"
         class="ColorScheme-Text"
         d="m 9,3 v 4 h 4 C 13,4.784 11.216,3 9,3 Z"
         inkscape:connector-curvature="0" />
      <path
         id="path4324"
         style="color:#d3dae3;opacity:0.1;fill:currentColor;fill-opacity:1;fill-rule:evenodd;stroke:none"
         class="ColorScheme-Text"
         d="m 9,3 v 4 h 4 C 13,4.784 11.216,3 9,3 Z"
         inkscape:connector-curvature="0" />
    </g>
    <g
       id="background-horizontal-bottomleft"
       transform="matrix(-0.75,0,0,0.75,43.750001,40.250001)">
      <rect
         id="rect4328"
         style="opacity:0.01000001;fill:#e4e6e8;fill-opacity:1;stroke:none"
         width="4"
         height="4"
         x="33"
         y="31"
         transform="matrix(-1.3333333,0,0,1.3333333,58.333333,-24.333333)" />
      <path
         id="path4330"
         style="color:#d3dae3;opacity:0;fill:currentColor;fill-opacity:1;fill-rule:evenodd;stroke:none"
         class="ColorScheme-Text"
         d="m 9,21 v -4 h 4 c 0,2.216 -1.784,4 -4,4 z"
         inkscape:connector-curvature="0" />
      <path
         id="path4332"
         style="color:#d3dae3;opacity:0.1;fill:currentColor;fill-opacity:1;fill-rule:evenodd;stroke:none"
         class="ColorScheme-Text"
         d="m 9,21 v -4 h 4 c 0,2.216 -1.784,4 -4,4 z"
         inkscape:connector-curvature="0" />
    </g>
    <g
       id="background-horizontal-top"
       transform="matrix(0,-0.75,-0.1,0,39.700001,47.750001)">
      <rect
         id="rect4336"
         style="opacity:0.01000001;fill:#e4e6e8;fill-opacity:1;stroke:none"
         width="1"
         height="4"
         x="38"
         y="15"
         transform="matrix(0,-10,-1.3333333,0,34.333333,397)" />
      <path
         id="path4338"
         style="color:#d3dae3;opacity:0;fill:currentColor;fill-opacity:1;fill-rule:evenodd;stroke:none"
         class="ColorScheme-Text"
         d="m 9,7 v 10 h 4 V 7 Z"
         inkscape:connector-curvature="0" />
      <path
         id="path4340"
         style="color:#d3dae3;opacity:0.1;fill:currentColor;fill-opacity:1;fill-rule:evenodd;stroke:none"
         class="ColorScheme-Text"
         d="m 9,7 v 10 h 4 V 7 Z"
         inkscape:connector-curvature="0" />
    </g>
    <g
       id="background-horizontal-bottom"
       transform="matrix(0,0.75,-0.1,0,39.700001,46.250001)">
      <rect
         id="rect4344"
         style="opacity:0.01000001;fill:#e4e6e8;fill-opacity:1;stroke:none"
         width="1"
         height="4"
         x="38"
         y="31"
         transform="matrix(0,-10,1.3333333,0,-32.333333,397)" />
      <path
         id="path4346"
         style="color:#d3dae3;opacity:0;fill:currentColor;fill-opacity:1;fill-rule:evenodd;stroke:none"
         class="ColorScheme-Text"
         d="m 9,7 v 10 h 4 V 7 Z"
         inkscape:connector-curvature="0" />
      <path
         id="path4348"
         style="color:#d3dae3;opacity:0.1;fill:currentColor;fill-opacity:1;fill-rule:evenodd;stroke:none"
         class="ColorScheme-Text"
         d="m 9,7 v 10 h 4 V 7 Z"
         inkscape:connector-curvature="0" />
    </g>
    <g
       id="background-horizontal-center"
       transform="translate(9.35e-7,22.000001)">
      <rect
         id="rect4352"
         style="color:#d3dae3;opacity:0;fill:currentColor;fill-opacity:1;fill-rule:evenodd;stroke:none"
         class="ColorScheme-Text"
         width="1"
         height="10"
         x="38"
         y="20" />
      <rect
         id="rect4354"
         style="color:#d3dae3;opacity:0.1;fill:currentColor;fill-opacity:1;fill-rule:evenodd;stroke:none"
         class="ColorScheme-Text"
         width="1"
         height="10"
         x="38"
         y="20" />
    </g>
  </g>
</svg>
